# xmcd
#
# Track frame offsets: 
#        150
#        18687
#        47877
#        66941
#        96017
#        116976
#        141564
#        156775
#        181331
#        207971
#        235648
#        267698
#        288695
#        309084
#
# Disc length: 4468 seconds
#
# Revision: 1
# Processed by: cddbd v1.5.2PL0 Copyright (c) Steve Scherf et al.
# Submitted via: ExactAudioCopy v1.0b3
#
DISCID=d711720e
DTITLE=TK. Bros. - The Club Mix Vol.3 [CD1)
DYEAR=2000
DGENRE=Dance and Electronica
TTITLE0=Spring affair (Lenny Fontana vocal mix) - Marcel Krieg and Kid B
TTITLE0=atchelor feat. Esther Adams
TTITLE1=Contigo (Nerios Dubwork clubmix) - Nosotros feat. Raul Paz
TTITLE2=Timba (Full Intention mix) - Awa Band
TTITLE3=What a night (Distincly club mix) - 7th District feat. Janine 
TTITLE3=Cross
TTITLE4=The latin theme (original mix) - Jerome Isma-Ae and Tomahawk
TTITLE5=Spiller from rio (Future Funk rmx) - Laguna
TTITLE6=Slice of da pie (Can7 Drinks Chocolate Milk dub mix) - Monie L
TTITLE6=ove
TTITLE7=Jenny - Marcel Krieg feat. Gary Williams
TTITLE8=Runnaway (Future Funk rmx) - K&N Project
TTITLE9=Let no man put asunder - First Choice feat. Rochelle Flemming
TTITLE10=All night (club mix) - Tk. Bros.
TTITLE11=Fires me up (Sebastian Krieg rmx) - Future Funk feat. Gary Wi
TTITLE11=lliams
TTITLE12=Love me or leave me (The 15000 § mix) - Delicious Inc.
TTITLE13=I got time (club mix) - M and G Slam
EXTD=CD Infos via Winamp
EXTT0=
EXTT1=
EXTT2=
EXTT3=
EXTT4=
EXTT5=
EXTT6=
EXTT7=
EXTT8=
EXTT9=
EXTT10=
EXTT11=
EXTT12=
EXTT13=
PLAYORDER=
